HIERARCHY
ROOT Hips
{
    OFFSET 0.000000 0.000000 0.000000
    CHANNELS 6 Xposition Yposition Zposition Zrotation Xrotation Yrotation
    JOINT Spine
    {
        OFFSET -0.000000 14.517291 0.000000
        CHANNELS 3 Zrotation Xrotation Yrotation
        JOINT Spine1
        {
            OFFSET -0.000000 37.558300 0.000000
            CHANNELS 3 Zrotation Xrotation Yrotation
            JOINT Neck
            {
                OFFSET -0.000000 37.404057 3.400369
                CHANNELS 3 Zrotation Xrotation Yrotation
                JOINT Head
                {
                    OFFSET -0.000000 24.785618 -3.540803
                    CHANNELS 3 Zrotation Xrotation Yrotation
                    End Site
                    {
                        OFFSET -0.000000 35.408028 0.000000
                    }
                }
            }
            JOINT LeftShoulder
            {
                OFFSET 6.992933 33.973492 -0.192664
                CHANNELS 3 Zrotation Xrotation Yrotation
                JOINT LeftArm
                {
                    OFFSET 21.527611 0.000000 0.000000
                    CHANNELS 3 Zrotation Xrotation Yrotation
                    JOINT LeftForeArm
                    {
                        OFFSET 56.353916 0.000000 0.000000
                        CHANNELS 3 Zrotation Xrotation Yrotation
                        JOINT LeftHand
                        {
                            OFFSET 47.774071 0.000000 0.000000
                            CHANNELS 3 Zrotation Xrotation Yrotation
                            End Site
                            {
                                OFFSET 26.556021 0.000000 0.000000
                            }
                        }
                    }
                }
            }
            JOINT RightShoulder
            {
                OFFSET -7.065357 33.973492 -0.192664
                CHANNELS 3 Zrotation Xrotation Yrotation
                JOINT RightArm
                {
                    OFFSET -21.527611 0.000000 0.000000
                    CHANNELS 3 Zrotation Xrotation Yrotation
                    JOINT RightForeArm
                    {
                        OFFSET -56.353916 0.000000 0.000000
                        CHANNELS 3 Zrotation Xrotation Yrotation
                        JOINT RightHand
                        {
                            OFFSET -47.774071 0.000000 0.000000
                            CHANNELS 3 Zrotation Xrotation Yrotation
                            End Site
                            {
                                OFFSET -26.556021 0.000000 0.000000
                            }
                        }
                    }
                }
            }
        }
    }
    JOINT LeftUpLeg
    {
        OFFSET 17.704014 0.000000 0.000000
        CHANNELS 3 Zrotation Xrotation Yrotation
        JOINT LeftLeg
        {
            OFFSET -0.000000 -81.181816 0.000000
            CHANNELS 3 Zrotation Xrotation Yrotation
            JOINT LeftFoot
            {
                OFFSET -0.000000 -62.821102 0.000000
                CHANNELS 3 Zrotation Xrotation Yrotation
                JOINT LeftToeBase
                {
                    OFFSET -0.000000 -11.507608 26.556021
                    CHANNELS 3 Zrotation Xrotation Yrotation
                    End Site
                    {
                        OFFSET -0.000000 0.000000 7.081605
                    }
                }
            }
        }
    }
    JOINT RightUpLeg
    {
        OFFSET -17.704014 0.000000 0.000000
        CHANNELS 3 Zrotation Xrotation Yrotation
        JOINT RightLeg
        {
            OFFSET -0.000000 -81.181816 0.000000
            CHANNELS 3 Zrotation Xrotation Yrotation
            JOINT RightFoot
            {
                OFFSET -0.000000 -62.821102 0.000000
                CHANNELS 3 Zrotation Xrotation Yrotation
                JOINT RightToeBase
                {
                    OFFSET -0.000000 -11.507608 26.556021
                    CHANNELS 3 Zrotation Xrotation Yrotation
                    End Site
                    {
                        OFFSET -0.000000 0.000000 7.081605
                    }
                }
            }
        }
    }
}
MOTION
Frames:    4
Frame Time:    0.008333
27.472874    148.778183    -97.778687    -0.604855    -0.330071    33.182201    -0.244695    -0.045761    -1.299444    -7.224783    0.949845    -0.373518    12.894638    -5.438977    -3.871305    6.046558    6.479559    -6.058050    7.853477    5.014282    -20.903574    -27.679523    19.391361    -59.217857    -16.420012    0.004099    -88.896378    17.226524    -16.969023    -5.931290    -14.294579    -6.170223    -2.589446    25.065084    -23.756025    64.171562    -12.006336    -12.754270    46.938259    -9.168970    -9.938047    28.840117    27.376499    -6.127800    0.868487    -10.234023    31.973326    -20.245672    -11.165522    -27.802376    38.673325    0.000000    0.000000    0.000000    -26.761505    -25.022676    -6.207018    15.431757    35.419502    -14.131233    8.130255    -2.026341    -12.619953    0.000000    0.000000    0.000000    
27.478689    148.782288    -97.746124    -0.672699    -0.381244    33.217480    -0.216029    -0.089631    -1.319158    -7.218095    1.000890    -0.376958    12.914234    -5.429912    -3.847618    6.009889    6.452088    -6.037965    7.844522    5.037761    -20.883402    -27.685064    19.372950    -59.217308    -16.490574    0.052083    -88.860588    17.275967    -16.990685    -5.972456    -14.272895    -6.155419    -2.562059    25.023886    -23.734627    64.152306    -11.955767    -12.714139    46.889648    -9.151154    -9.927185    28.915743    27.444912    -6.179250    0.651518    -10.311475    32.037243    -20.110508    -11.121412    -27.850086    38.752338    0.000000    0.000000    0.000000    -26.664677    -24.964397    -6.257095    15.372094    35.386040    -14.110969    8.155816    -2.017496    -12.596354    0.000000    0.000000    0.000000    
27.482159    148.787567    -97.711609    -0.740448    -0.439873    33.253361    -0.183889    -0.115605    -1.338680    -7.212573    1.041438    -0.380840    12.938354    -5.436913    -3.838282    5.976260    6.450348    -6.036642    7.860463    5.054796    -20.854822    -27.691257    19.385725    -59.249424    -16.524368    0.051476    -88.831436    17.332472    -17.014673    -5.942846    -14.227972    -6.153420    -2.536658    24.992350    -23.748369    64.138977    -11.877172    -12.626761    46.846996    -9.174317    -9.884798    28.924427    27.516485    -6.229766    0.397806    -10.398569    32.108849    -19.992165    -11.061219    -27.900383    38.869007    0.000000    0.000000    0.000000    -26.563635    -24.903912    -6.313552    15.312998    35.357250    -14.073007    8.151648    -1.995223    -12.589290    0.000000    0.000000    0.000000    
27.478596    148.792023    -97.672928    -0.805747    -0.500351    33.286148    -0.168979    -0.129363    -1.365415    -7.169774    1.071124    -0.388360    12.934608    -5.438055    -3.823263    5.951624    6.433720    -6.021626    7.848617    5.059363    -20.827991    -27.701469    19.402180    -59.253876    -16.576443    0.068366    -88.818886    17.435431    -17.045675    -5.905302    -14.217341    -6.140566    -2.509200    25.000401    -23.760069    64.150414    -11.815324    -12.561953    46.800327    -9.189003    -9.859675    28.972235    27.588520    -6.268311    0.154941    -10.472391    32.167423    -19.914690    -11.003341    -27.959457    39.010738    0.000000    0.000000    0.000000    -26.459196    -24.842876    -6.362667    15.255761    35.329288    -14.037708    8.175272    -1.984118    -12.591699    0.000000    0.000000    0.000000    
